<mxfile host="Electron" modified="2023-09-19T09:50:53.422Z" agent="Mozilla/5.0 (Windows NT 10.0; Win64; x64) AppleWebKit/537.36 (KHTML, like Gecko) draw.io/21.6.8 Chrome/114.0.5735.289 Electron/25.5.0 Safari/537.36" etag="AZZdSw9A48_CT9VfYC2w" version="21.6.8" type="device">
  <diagram name="第 1 页" id="ksMsuuioC594yyuCfUyl">
    <mxGraphModel dx="2049" dy="1263" grid="1" gridSize="10" guides="1" tooltips="1" connect="1" arrows="1" fold="1" page="1" pageScale="1" pageWidth="827" pageHeight="1169" math="0" shadow="0">
      <root>
        <mxCell id="0" />
        <mxCell id="1" parent="0" />
        <mxCell id="JVqYv_aj_eOmtdZaUUa7-31" value="&lt;font style=&quot;font-size: 16px;&quot;&gt;User Records&lt;/font&gt;" style="rounded=0;whiteSpace=wrap;html=1;verticalAlign=top;fillColor=#f8cecc;gradientColor=#ea6b66;strokeColor=#b85450;" vertex="1" parent="1">
          <mxGeometry x="180" y="370" width="1290" height="320" as="geometry" />
        </mxCell>
        <mxCell id="JVqYv_aj_eOmtdZaUUa7-76" value="" style="rounded=1;whiteSpace=wrap;html=1;fillColor=#eeeeee;strokeColor=none;opacity=60;dashed=1;" vertex="1" parent="1">
          <mxGeometry x="210" y="420" width="390" height="230" as="geometry" />
        </mxCell>
        <mxCell id="JVqYv_aj_eOmtdZaUUa7-26" value="&lt;font style=&quot;font-size: 16px;&quot;&gt;File Header&lt;br&gt;(38Bytes)&lt;/font&gt;" style="rounded=0;whiteSpace=wrap;html=1;fillColor=#ffe6cc;strokeColor=#d79b00;" vertex="1" parent="1">
          <mxGeometry x="180" y="160" width="1290" height="60" as="geometry" />
        </mxCell>
        <mxCell id="JVqYv_aj_eOmtdZaUUa7-28" value="&lt;font style=&quot;font-size: 16px;&quot;&gt;Page Header&lt;br&gt;(56Bytes)&lt;/font&gt;" style="rounded=0;whiteSpace=wrap;html=1;fillColor=#d5e8d4;strokeColor=#82b366;" vertex="1" parent="1">
          <mxGeometry x="180" y="220" width="1290" height="60" as="geometry" />
        </mxCell>
        <mxCell id="JVqYv_aj_eOmtdZaUUa7-29" value="&lt;font style=&quot;font-size: 16px;&quot;&gt;Page Directory (38Bytes)&lt;/font&gt;" style="rounded=0;whiteSpace=wrap;html=1;verticalAlign=top;fillColor=#e1d5e7;strokeColor=#9673a6;" vertex="1" parent="1">
          <mxGeometry x="180" y="790" width="1290" height="130" as="geometry" />
        </mxCell>
        <mxCell id="JVqYv_aj_eOmtdZaUUa7-30" value="&lt;font style=&quot;font-size: 16px;&quot;&gt;Infimum+Supremum (26Bytes)&lt;/font&gt;" style="rounded=0;whiteSpace=wrap;html=1;verticalAlign=top;fillColor=#dae8fc;strokeColor=#6c8ebf;gradientColor=#7ea6e0;" vertex="1" parent="1">
          <mxGeometry x="180" y="280" width="1290" height="90" as="geometry" />
        </mxCell>
        <mxCell id="JVqYv_aj_eOmtdZaUUa7-32" value="&lt;font style=&quot;font-size: 16px;&quot;&gt;Free Space&lt;/font&gt;" style="rounded=0;whiteSpace=wrap;html=1;fillColor=#eeeeee;strokeColor=#36393d;" vertex="1" parent="1">
          <mxGeometry x="180" y="690" width="1290" height="100" as="geometry" />
        </mxCell>
        <mxCell id="JVqYv_aj_eOmtdZaUUa7-33" value="&lt;font style=&quot;font-size: 16px;&quot;&gt;File Tailer&lt;br&gt;(8Bytes)&lt;/font&gt;" style="rounded=0;whiteSpace=wrap;html=1;fillColor=#fa6800;fontColor=#000000;strokeColor=#C73500;" vertex="1" parent="1">
          <mxGeometry x="180" y="920" width="1290" height="60" as="geometry" />
        </mxCell>
        <mxCell id="JVqYv_aj_eOmtdZaUUa7-69" style="edgeStyle=orthogonalEdgeStyle;rounded=0;orthogonalLoop=1;jettySize=auto;html=1;exitX=0.5;exitY=1;exitDx=0;exitDy=0;entryX=0.5;entryY=0;entryDx=0;entryDy=0;" edge="1" parent="1" source="JVqYv_aj_eOmtdZaUUa7-42" target="JVqYv_aj_eOmtdZaUUa7-52">
          <mxGeometry relative="1" as="geometry">
            <Array as="points">
              <mxPoint x="375" y="470" />
              <mxPoint x="250" y="470" />
            </Array>
          </mxGeometry>
        </mxCell>
        <mxCell id="JVqYv_aj_eOmtdZaUUa7-73" style="edgeStyle=orthogonalEdgeStyle;rounded=0;orthogonalLoop=1;jettySize=auto;html=1;exitX=0.5;exitY=1;exitDx=0;exitDy=0;entryX=0.5;entryY=0;entryDx=0;entryDy=0;" edge="1" parent="1" source="JVqYv_aj_eOmtdZaUUa7-58" target="JVqYv_aj_eOmtdZaUUa7-60">
          <mxGeometry relative="1" as="geometry">
            <Array as="points">
              <mxPoint x="375" y="530" />
              <mxPoint x="250" y="530" />
            </Array>
          </mxGeometry>
        </mxCell>
        <mxCell id="JVqYv_aj_eOmtdZaUUa7-74" style="edgeStyle=orthogonalEdgeStyle;rounded=0;orthogonalLoop=1;jettySize=auto;html=1;exitX=0.5;exitY=1;exitDx=0;exitDy=0;entryX=0.5;entryY=0;entryDx=0;entryDy=0;" edge="1" parent="1" source="JVqYv_aj_eOmtdZaUUa7-37" target="JVqYv_aj_eOmtdZaUUa7-19">
          <mxGeometry relative="1" as="geometry">
            <Array as="points">
              <mxPoint x="595" y="380" />
              <mxPoint x="250" y="380" />
            </Array>
          </mxGeometry>
        </mxCell>
        <mxCell id="JVqYv_aj_eOmtdZaUUa7-82" value="&lt;font style=&quot;font-size: 16px;&quot;&gt;&lt;font style=&quot;font-size: 16px;&quot;&gt;Slot &lt;/font&gt;0&lt;/font&gt;" style="rounded=0;whiteSpace=wrap;html=1;fillColor=#dae8fc;strokeColor=#6c8ebf;" vertex="1" parent="1">
          <mxGeometry x="480" y="850" width="50" height="50" as="geometry" />
        </mxCell>
        <mxCell id="JVqYv_aj_eOmtdZaUUa7-96" style="edgeStyle=orthogonalEdgeStyle;rounded=0;orthogonalLoop=1;jettySize=auto;html=1;exitX=0.5;exitY=1;exitDx=0;exitDy=0;entryX=0.5;entryY=0;entryDx=0;entryDy=0;" edge="1" parent="1" source="JVqYv_aj_eOmtdZaUUa7-66" target="JVqYv_aj_eOmtdZaUUa7-89">
          <mxGeometry relative="1" as="geometry">
            <Array as="points">
              <mxPoint x="375" y="590" />
              <mxPoint x="250" y="590" />
            </Array>
          </mxGeometry>
        </mxCell>
        <mxCell id="JVqYv_aj_eOmtdZaUUa7-97" value="" style="group" vertex="1" connectable="0" parent="1">
          <mxGeometry x="220" y="490" width="360" height="30" as="geometry" />
        </mxCell>
        <mxCell id="JVqYv_aj_eOmtdZaUUa7-52" value="" style="rounded=0;whiteSpace=wrap;html=1;fillColor=#f8cecc;strokeColor=#b85450;" vertex="1" parent="JVqYv_aj_eOmtdZaUUa7-97">
          <mxGeometry width="60" height="30" as="geometry" />
        </mxCell>
        <mxCell id="JVqYv_aj_eOmtdZaUUa7-53" value="" style="rounded=0;whiteSpace=wrap;html=1;fillColor=#d5e8d4;strokeColor=#82b366;" vertex="1" parent="JVqYv_aj_eOmtdZaUUa7-97">
          <mxGeometry x="60" width="60" height="30" as="geometry" />
        </mxCell>
        <mxCell id="JVqYv_aj_eOmtdZaUUa7-54" value="" style="rounded=0;whiteSpace=wrap;html=1;fillColor=#dae8fc;strokeColor=#6c8ebf;" vertex="1" parent="JVqYv_aj_eOmtdZaUUa7-97">
          <mxGeometry x="190" width="30" height="30" as="geometry" />
        </mxCell>
        <mxCell id="JVqYv_aj_eOmtdZaUUa7-55" value="0" style="rounded=0;whiteSpace=wrap;html=1;fillColor=#dae8fc;strokeColor=#6c8ebf;" vertex="1" parent="JVqYv_aj_eOmtdZaUUa7-97">
          <mxGeometry x="220" width="30" height="30" as="geometry" />
        </mxCell>
        <mxCell id="JVqYv_aj_eOmtdZaUUa7-56" value="" style="rounded=0;whiteSpace=wrap;html=1;fillColor=#dae8fc;strokeColor=#6c8ebf;" vertex="1" parent="JVqYv_aj_eOmtdZaUUa7-97">
          <mxGeometry x="250" width="30" height="30" as="geometry" />
        </mxCell>
        <mxCell id="JVqYv_aj_eOmtdZaUUa7-57" value="" style="rounded=0;whiteSpace=wrap;html=1;fillColor=#f5f5f5;fontColor=#333333;strokeColor=#666666;" vertex="1" parent="JVqYv_aj_eOmtdZaUUa7-97">
          <mxGeometry x="280" width="80" height="30" as="geometry" />
        </mxCell>
        <mxCell id="JVqYv_aj_eOmtdZaUUa7-58" value="&lt;font style=&quot;font-size: 12px;&quot;&gt;next_record&lt;/font&gt;" style="rounded=0;whiteSpace=wrap;html=1;fillColor=#fff2cc;strokeColor=#d6b656;" vertex="1" parent="JVqYv_aj_eOmtdZaUUa7-97">
          <mxGeometry x="120" width="70" height="30" as="geometry" />
        </mxCell>
        <mxCell id="JVqYv_aj_eOmtdZaUUa7-99" value="" style="group" vertex="1" connectable="0" parent="1">
          <mxGeometry x="220" y="550" width="360" height="30" as="geometry" />
        </mxCell>
        <mxCell id="JVqYv_aj_eOmtdZaUUa7-60" value="" style="rounded=0;whiteSpace=wrap;html=1;fillColor=#f8cecc;strokeColor=#b85450;" vertex="1" parent="JVqYv_aj_eOmtdZaUUa7-99">
          <mxGeometry width="60" height="30" as="geometry" />
        </mxCell>
        <mxCell id="JVqYv_aj_eOmtdZaUUa7-61" value="" style="rounded=0;whiteSpace=wrap;html=1;fillColor=#d5e8d4;strokeColor=#82b366;" vertex="1" parent="JVqYv_aj_eOmtdZaUUa7-99">
          <mxGeometry x="60" width="60" height="30" as="geometry" />
        </mxCell>
        <mxCell id="JVqYv_aj_eOmtdZaUUa7-62" value="" style="rounded=0;whiteSpace=wrap;html=1;fillColor=#dae8fc;strokeColor=#6c8ebf;" vertex="1" parent="JVqYv_aj_eOmtdZaUUa7-99">
          <mxGeometry x="190" width="30" height="30" as="geometry" />
        </mxCell>
        <mxCell id="JVqYv_aj_eOmtdZaUUa7-63" value="0" style="rounded=0;whiteSpace=wrap;html=1;fillColor=#dae8fc;strokeColor=#6c8ebf;" vertex="1" parent="JVqYv_aj_eOmtdZaUUa7-99">
          <mxGeometry x="220" width="30" height="30" as="geometry" />
        </mxCell>
        <mxCell id="JVqYv_aj_eOmtdZaUUa7-64" value="" style="rounded=0;whiteSpace=wrap;html=1;fillColor=#dae8fc;strokeColor=#6c8ebf;" vertex="1" parent="JVqYv_aj_eOmtdZaUUa7-99">
          <mxGeometry x="250" width="30" height="30" as="geometry" />
        </mxCell>
        <mxCell id="JVqYv_aj_eOmtdZaUUa7-65" value="" style="rounded=0;whiteSpace=wrap;html=1;fillColor=#f5f5f5;fontColor=#333333;strokeColor=#666666;" vertex="1" parent="JVqYv_aj_eOmtdZaUUa7-99">
          <mxGeometry x="280" width="80" height="30" as="geometry" />
        </mxCell>
        <mxCell id="JVqYv_aj_eOmtdZaUUa7-66" value="&lt;font style=&quot;font-size: 12px;&quot;&gt;next_record&lt;/font&gt;" style="rounded=0;whiteSpace=wrap;html=1;fillColor=#fff2cc;strokeColor=#d6b656;" vertex="1" parent="JVqYv_aj_eOmtdZaUUa7-99">
          <mxGeometry x="120" width="70" height="30" as="geometry" />
        </mxCell>
        <mxCell id="JVqYv_aj_eOmtdZaUUa7-100" value="" style="group" vertex="1" connectable="0" parent="1">
          <mxGeometry x="220" y="610" width="360" height="30" as="geometry" />
        </mxCell>
        <mxCell id="JVqYv_aj_eOmtdZaUUa7-89" value="" style="rounded=0;whiteSpace=wrap;html=1;fillColor=#f8cecc;strokeColor=#b85450;" vertex="1" parent="JVqYv_aj_eOmtdZaUUa7-100">
          <mxGeometry width="60" height="30" as="geometry" />
        </mxCell>
        <mxCell id="JVqYv_aj_eOmtdZaUUa7-90" value="" style="rounded=0;whiteSpace=wrap;html=1;fillColor=#d5e8d4;strokeColor=#82b366;" vertex="1" parent="JVqYv_aj_eOmtdZaUUa7-100">
          <mxGeometry x="60" width="60" height="30" as="geometry" />
        </mxCell>
        <mxCell id="JVqYv_aj_eOmtdZaUUa7-91" value="" style="rounded=0;whiteSpace=wrap;html=1;fillColor=#dae8fc;strokeColor=#6c8ebf;" vertex="1" parent="JVqYv_aj_eOmtdZaUUa7-100">
          <mxGeometry x="190" width="30" height="30" as="geometry" />
        </mxCell>
        <mxCell id="JVqYv_aj_eOmtdZaUUa7-92" value="4" style="rounded=0;whiteSpace=wrap;html=1;fillColor=#dae8fc;strokeColor=#6c8ebf;" vertex="1" parent="JVqYv_aj_eOmtdZaUUa7-100">
          <mxGeometry x="220" width="30" height="30" as="geometry" />
        </mxCell>
        <mxCell id="JVqYv_aj_eOmtdZaUUa7-93" value="" style="rounded=0;whiteSpace=wrap;html=1;fillColor=#dae8fc;strokeColor=#6c8ebf;" vertex="1" parent="JVqYv_aj_eOmtdZaUUa7-100">
          <mxGeometry x="250" width="30" height="30" as="geometry" />
        </mxCell>
        <mxCell id="JVqYv_aj_eOmtdZaUUa7-94" value="" style="rounded=0;whiteSpace=wrap;html=1;fillColor=#f5f5f5;fontColor=#333333;strokeColor=#666666;" vertex="1" parent="JVqYv_aj_eOmtdZaUUa7-100">
          <mxGeometry x="280" width="80" height="30" as="geometry" />
        </mxCell>
        <mxCell id="JVqYv_aj_eOmtdZaUUa7-95" value="&lt;font style=&quot;font-size: 12px;&quot;&gt;next_record&lt;/font&gt;" style="rounded=0;whiteSpace=wrap;html=1;fillColor=#fff2cc;strokeColor=#d6b656;" vertex="1" parent="JVqYv_aj_eOmtdZaUUa7-100">
          <mxGeometry x="120" width="70" height="30" as="geometry" />
        </mxCell>
        <mxCell id="JVqYv_aj_eOmtdZaUUa7-101" value="" style="group" vertex="1" connectable="0" parent="1">
          <mxGeometry x="220" y="430" width="360" height="30" as="geometry" />
        </mxCell>
        <mxCell id="JVqYv_aj_eOmtdZaUUa7-19" value="" style="rounded=0;whiteSpace=wrap;html=1;fillColor=#f8cecc;strokeColor=#b85450;" vertex="1" parent="JVqYv_aj_eOmtdZaUUa7-101">
          <mxGeometry width="60" height="30" as="geometry" />
        </mxCell>
        <mxCell id="JVqYv_aj_eOmtdZaUUa7-22" value="" style="rounded=0;whiteSpace=wrap;html=1;fillColor=#dae8fc;strokeColor=#6c8ebf;" vertex="1" parent="JVqYv_aj_eOmtdZaUUa7-101">
          <mxGeometry x="190" width="30" height="30" as="geometry" />
        </mxCell>
        <mxCell id="JVqYv_aj_eOmtdZaUUa7-23" value="0" style="rounded=0;whiteSpace=wrap;html=1;fillColor=#dae8fc;strokeColor=#6c8ebf;" vertex="1" parent="JVqYv_aj_eOmtdZaUUa7-101">
          <mxGeometry x="220" width="30" height="30" as="geometry" />
        </mxCell>
        <mxCell id="JVqYv_aj_eOmtdZaUUa7-24" value="" style="rounded=0;whiteSpace=wrap;html=1;fillColor=#dae8fc;strokeColor=#6c8ebf;" vertex="1" parent="JVqYv_aj_eOmtdZaUUa7-101">
          <mxGeometry x="250" width="30" height="30" as="geometry" />
        </mxCell>
        <mxCell id="JVqYv_aj_eOmtdZaUUa7-25" value="" style="rounded=0;whiteSpace=wrap;html=1;fillColor=#f5f5f5;fontColor=#333333;strokeColor=#666666;" vertex="1" parent="JVqYv_aj_eOmtdZaUUa7-101">
          <mxGeometry x="280" width="80" height="30" as="geometry" />
        </mxCell>
        <mxCell id="JVqYv_aj_eOmtdZaUUa7-42" value="&lt;font style=&quot;font-size: 12px;&quot;&gt;next_record&lt;/font&gt;" style="rounded=0;whiteSpace=wrap;html=1;fillColor=#fff2cc;strokeColor=#d6b656;" vertex="1" parent="JVqYv_aj_eOmtdZaUUa7-101">
          <mxGeometry x="120" width="70" height="30" as="geometry" />
        </mxCell>
        <mxCell id="JVqYv_aj_eOmtdZaUUa7-20" value="" style="rounded=0;whiteSpace=wrap;html=1;fillColor=#d5e8d4;strokeColor=#82b366;" vertex="1" parent="JVqYv_aj_eOmtdZaUUa7-101">
          <mxGeometry x="60" width="60" height="30" as="geometry" />
        </mxCell>
        <mxCell id="JVqYv_aj_eOmtdZaUUa7-135" value="" style="group" vertex="1" connectable="0" parent="1">
          <mxGeometry x="630" y="420" width="390" height="230" as="geometry" />
        </mxCell>
        <mxCell id="JVqYv_aj_eOmtdZaUUa7-102" value="" style="rounded=1;whiteSpace=wrap;html=1;fillColor=#eeeeee;strokeColor=none;opacity=60;dashed=1;" vertex="1" parent="JVqYv_aj_eOmtdZaUUa7-135">
          <mxGeometry width="390" height="230" as="geometry" />
        </mxCell>
        <mxCell id="JVqYv_aj_eOmtdZaUUa7-103" value="" style="group" vertex="1" connectable="0" parent="JVqYv_aj_eOmtdZaUUa7-135">
          <mxGeometry x="10" y="70" width="360" height="30" as="geometry" />
        </mxCell>
        <mxCell id="JVqYv_aj_eOmtdZaUUa7-104" value="" style="rounded=0;whiteSpace=wrap;html=1;fillColor=#f8cecc;strokeColor=#b85450;" vertex="1" parent="JVqYv_aj_eOmtdZaUUa7-103">
          <mxGeometry width="60" height="30" as="geometry" />
        </mxCell>
        <mxCell id="JVqYv_aj_eOmtdZaUUa7-105" value="" style="rounded=0;whiteSpace=wrap;html=1;fillColor=#d5e8d4;strokeColor=#82b366;" vertex="1" parent="JVqYv_aj_eOmtdZaUUa7-103">
          <mxGeometry x="60" width="60" height="30" as="geometry" />
        </mxCell>
        <mxCell id="JVqYv_aj_eOmtdZaUUa7-106" value="" style="rounded=0;whiteSpace=wrap;html=1;fillColor=#dae8fc;strokeColor=#6c8ebf;" vertex="1" parent="JVqYv_aj_eOmtdZaUUa7-103">
          <mxGeometry x="190" width="30" height="30" as="geometry" />
        </mxCell>
        <mxCell id="JVqYv_aj_eOmtdZaUUa7-107" value="0" style="rounded=0;whiteSpace=wrap;html=1;fillColor=#dae8fc;strokeColor=#6c8ebf;" vertex="1" parent="JVqYv_aj_eOmtdZaUUa7-103">
          <mxGeometry x="220" width="30" height="30" as="geometry" />
        </mxCell>
        <mxCell id="JVqYv_aj_eOmtdZaUUa7-108" value="" style="rounded=0;whiteSpace=wrap;html=1;fillColor=#dae8fc;strokeColor=#6c8ebf;" vertex="1" parent="JVqYv_aj_eOmtdZaUUa7-103">
          <mxGeometry x="250" width="30" height="30" as="geometry" />
        </mxCell>
        <mxCell id="JVqYv_aj_eOmtdZaUUa7-109" value="" style="rounded=0;whiteSpace=wrap;html=1;fillColor=#f5f5f5;fontColor=#333333;strokeColor=#666666;" vertex="1" parent="JVqYv_aj_eOmtdZaUUa7-103">
          <mxGeometry x="280" width="80" height="30" as="geometry" />
        </mxCell>
        <mxCell id="JVqYv_aj_eOmtdZaUUa7-110" value="&lt;font style=&quot;font-size: 12px;&quot;&gt;next_record&lt;/font&gt;" style="rounded=0;whiteSpace=wrap;html=1;fillColor=#fff2cc;strokeColor=#d6b656;" vertex="1" parent="JVqYv_aj_eOmtdZaUUa7-103">
          <mxGeometry x="120" width="70" height="30" as="geometry" />
        </mxCell>
        <mxCell id="JVqYv_aj_eOmtdZaUUa7-111" value="" style="group" vertex="1" connectable="0" parent="JVqYv_aj_eOmtdZaUUa7-135">
          <mxGeometry x="10" y="130" width="360" height="30" as="geometry" />
        </mxCell>
        <mxCell id="JVqYv_aj_eOmtdZaUUa7-112" value="" style="rounded=0;whiteSpace=wrap;html=1;fillColor=#f8cecc;strokeColor=#b85450;" vertex="1" parent="JVqYv_aj_eOmtdZaUUa7-111">
          <mxGeometry width="60" height="30" as="geometry" />
        </mxCell>
        <mxCell id="JVqYv_aj_eOmtdZaUUa7-113" value="" style="rounded=0;whiteSpace=wrap;html=1;fillColor=#d5e8d4;strokeColor=#82b366;" vertex="1" parent="JVqYv_aj_eOmtdZaUUa7-111">
          <mxGeometry x="60" width="60" height="30" as="geometry" />
        </mxCell>
        <mxCell id="JVqYv_aj_eOmtdZaUUa7-114" value="" style="rounded=0;whiteSpace=wrap;html=1;fillColor=#dae8fc;strokeColor=#6c8ebf;" vertex="1" parent="JVqYv_aj_eOmtdZaUUa7-111">
          <mxGeometry x="190" width="30" height="30" as="geometry" />
        </mxCell>
        <mxCell id="JVqYv_aj_eOmtdZaUUa7-115" value="0" style="rounded=0;whiteSpace=wrap;html=1;fillColor=#dae8fc;strokeColor=#6c8ebf;" vertex="1" parent="JVqYv_aj_eOmtdZaUUa7-111">
          <mxGeometry x="220" width="30" height="30" as="geometry" />
        </mxCell>
        <mxCell id="JVqYv_aj_eOmtdZaUUa7-116" value="" style="rounded=0;whiteSpace=wrap;html=1;fillColor=#dae8fc;strokeColor=#6c8ebf;" vertex="1" parent="JVqYv_aj_eOmtdZaUUa7-111">
          <mxGeometry x="250" width="30" height="30" as="geometry" />
        </mxCell>
        <mxCell id="JVqYv_aj_eOmtdZaUUa7-117" value="" style="rounded=0;whiteSpace=wrap;html=1;fillColor=#f5f5f5;fontColor=#333333;strokeColor=#666666;" vertex="1" parent="JVqYv_aj_eOmtdZaUUa7-111">
          <mxGeometry x="280" width="80" height="30" as="geometry" />
        </mxCell>
        <mxCell id="JVqYv_aj_eOmtdZaUUa7-118" value="&lt;font style=&quot;font-size: 12px;&quot;&gt;next_record&lt;/font&gt;" style="rounded=0;whiteSpace=wrap;html=1;fillColor=#fff2cc;strokeColor=#d6b656;" vertex="1" parent="JVqYv_aj_eOmtdZaUUa7-111">
          <mxGeometry x="120" width="70" height="30" as="geometry" />
        </mxCell>
        <mxCell id="JVqYv_aj_eOmtdZaUUa7-119" value="" style="group" vertex="1" connectable="0" parent="JVqYv_aj_eOmtdZaUUa7-135">
          <mxGeometry x="10" y="190" width="360" height="30" as="geometry" />
        </mxCell>
        <mxCell id="JVqYv_aj_eOmtdZaUUa7-120" value="" style="rounded=0;whiteSpace=wrap;html=1;fillColor=#f8cecc;strokeColor=#b85450;" vertex="1" parent="JVqYv_aj_eOmtdZaUUa7-119">
          <mxGeometry width="60" height="30" as="geometry" />
        </mxCell>
        <mxCell id="JVqYv_aj_eOmtdZaUUa7-121" value="" style="rounded=0;whiteSpace=wrap;html=1;fillColor=#d5e8d4;strokeColor=#82b366;" vertex="1" parent="JVqYv_aj_eOmtdZaUUa7-119">
          <mxGeometry x="60" width="60" height="30" as="geometry" />
        </mxCell>
        <mxCell id="JVqYv_aj_eOmtdZaUUa7-122" value="" style="rounded=0;whiteSpace=wrap;html=1;fillColor=#dae8fc;strokeColor=#6c8ebf;" vertex="1" parent="JVqYv_aj_eOmtdZaUUa7-119">
          <mxGeometry x="190" width="30" height="30" as="geometry" />
        </mxCell>
        <mxCell id="JVqYv_aj_eOmtdZaUUa7-123" value="4" style="rounded=0;whiteSpace=wrap;html=1;fillColor=#dae8fc;strokeColor=#6c8ebf;" vertex="1" parent="JVqYv_aj_eOmtdZaUUa7-119">
          <mxGeometry x="220" width="30" height="30" as="geometry" />
        </mxCell>
        <mxCell id="JVqYv_aj_eOmtdZaUUa7-124" value="" style="rounded=0;whiteSpace=wrap;html=1;fillColor=#dae8fc;strokeColor=#6c8ebf;" vertex="1" parent="JVqYv_aj_eOmtdZaUUa7-119">
          <mxGeometry x="250" width="30" height="30" as="geometry" />
        </mxCell>
        <mxCell id="JVqYv_aj_eOmtdZaUUa7-125" value="" style="rounded=0;whiteSpace=wrap;html=1;fillColor=#f5f5f5;fontColor=#333333;strokeColor=#666666;" vertex="1" parent="JVqYv_aj_eOmtdZaUUa7-119">
          <mxGeometry x="280" width="80" height="30" as="geometry" />
        </mxCell>
        <mxCell id="JVqYv_aj_eOmtdZaUUa7-126" value="&lt;font style=&quot;font-size: 12px;&quot;&gt;next_record&lt;/font&gt;" style="rounded=0;whiteSpace=wrap;html=1;fillColor=#fff2cc;strokeColor=#d6b656;" vertex="1" parent="JVqYv_aj_eOmtdZaUUa7-119">
          <mxGeometry x="120" width="70" height="30" as="geometry" />
        </mxCell>
        <mxCell id="JVqYv_aj_eOmtdZaUUa7-127" value="" style="group" vertex="1" connectable="0" parent="JVqYv_aj_eOmtdZaUUa7-135">
          <mxGeometry x="10" y="10" width="360" height="30" as="geometry" />
        </mxCell>
        <mxCell id="JVqYv_aj_eOmtdZaUUa7-128" value="" style="rounded=0;whiteSpace=wrap;html=1;fillColor=#f8cecc;strokeColor=#b85450;" vertex="1" parent="JVqYv_aj_eOmtdZaUUa7-127">
          <mxGeometry width="60" height="30" as="geometry" />
        </mxCell>
        <mxCell id="JVqYv_aj_eOmtdZaUUa7-129" value="" style="rounded=0;whiteSpace=wrap;html=1;fillColor=#dae8fc;strokeColor=#6c8ebf;" vertex="1" parent="JVqYv_aj_eOmtdZaUUa7-127">
          <mxGeometry x="190" width="30" height="30" as="geometry" />
        </mxCell>
        <mxCell id="JVqYv_aj_eOmtdZaUUa7-130" value="0" style="rounded=0;whiteSpace=wrap;html=1;fillColor=#dae8fc;strokeColor=#6c8ebf;" vertex="1" parent="JVqYv_aj_eOmtdZaUUa7-127">
          <mxGeometry x="220" width="30" height="30" as="geometry" />
        </mxCell>
        <mxCell id="JVqYv_aj_eOmtdZaUUa7-131" value="" style="rounded=0;whiteSpace=wrap;html=1;fillColor=#dae8fc;strokeColor=#6c8ebf;" vertex="1" parent="JVqYv_aj_eOmtdZaUUa7-127">
          <mxGeometry x="250" width="30" height="30" as="geometry" />
        </mxCell>
        <mxCell id="JVqYv_aj_eOmtdZaUUa7-132" value="" style="rounded=0;whiteSpace=wrap;html=1;fillColor=#f5f5f5;fontColor=#333333;strokeColor=#666666;" vertex="1" parent="JVqYv_aj_eOmtdZaUUa7-127">
          <mxGeometry x="280" width="80" height="30" as="geometry" />
        </mxCell>
        <mxCell id="JVqYv_aj_eOmtdZaUUa7-133" value="&lt;font style=&quot;font-size: 12px;&quot;&gt;next_record&lt;/font&gt;" style="rounded=0;whiteSpace=wrap;html=1;fillColor=#fff2cc;strokeColor=#d6b656;" vertex="1" parent="JVqYv_aj_eOmtdZaUUa7-127">
          <mxGeometry x="120" width="70" height="30" as="geometry" />
        </mxCell>
        <mxCell id="JVqYv_aj_eOmtdZaUUa7-134" value="" style="rounded=0;whiteSpace=wrap;html=1;fillColor=#d5e8d4;strokeColor=#82b366;" vertex="1" parent="JVqYv_aj_eOmtdZaUUa7-127">
          <mxGeometry x="60" width="60" height="30" as="geometry" />
        </mxCell>
        <mxCell id="JVqYv_aj_eOmtdZaUUa7-170" style="edgeStyle=orthogonalEdgeStyle;rounded=0;orthogonalLoop=1;jettySize=auto;html=1;exitX=0.5;exitY=1;exitDx=0;exitDy=0;entryX=0.5;entryY=0;entryDx=0;entryDy=0;" edge="1" parent="JVqYv_aj_eOmtdZaUUa7-135">
          <mxGeometry relative="1" as="geometry">
            <mxPoint x="165" y="40" as="sourcePoint" />
            <mxPoint x="40" y="70" as="targetPoint" />
            <Array as="points">
              <mxPoint x="165" y="50" />
              <mxPoint x="40" y="50" />
            </Array>
          </mxGeometry>
        </mxCell>
        <mxCell id="JVqYv_aj_eOmtdZaUUa7-171" style="edgeStyle=orthogonalEdgeStyle;rounded=0;orthogonalLoop=1;jettySize=auto;html=1;exitX=0.5;exitY=1;exitDx=0;exitDy=0;entryX=0.5;entryY=0;entryDx=0;entryDy=0;" edge="1" parent="JVqYv_aj_eOmtdZaUUa7-135">
          <mxGeometry relative="1" as="geometry">
            <mxPoint x="165" y="100" as="sourcePoint" />
            <mxPoint x="40" y="130" as="targetPoint" />
            <Array as="points">
              <mxPoint x="165" y="110" />
              <mxPoint x="40" y="110" />
            </Array>
          </mxGeometry>
        </mxCell>
        <mxCell id="JVqYv_aj_eOmtdZaUUa7-172" style="edgeStyle=orthogonalEdgeStyle;rounded=0;orthogonalLoop=1;jettySize=auto;html=1;exitX=0.5;exitY=1;exitDx=0;exitDy=0;entryX=0.5;entryY=0;entryDx=0;entryDy=0;" edge="1" parent="JVqYv_aj_eOmtdZaUUa7-135">
          <mxGeometry relative="1" as="geometry">
            <mxPoint x="165" y="160" as="sourcePoint" />
            <mxPoint x="40" y="190" as="targetPoint" />
            <Array as="points">
              <mxPoint x="165" y="170" />
              <mxPoint x="40" y="170" />
            </Array>
          </mxGeometry>
        </mxCell>
        <mxCell id="JVqYv_aj_eOmtdZaUUa7-173" value="n_owned" style="rounded=0;whiteSpace=wrap;html=1;glass=1;fillColor=#dae8fc;strokeColor=#6c8ebf;gradientColor=#7ea6e0;" vertex="1" parent="JVqYv_aj_eOmtdZaUUa7-135">
          <mxGeometry x="220" y="-10" width="50" height="20" as="geometry" />
        </mxCell>
        <mxCell id="JVqYv_aj_eOmtdZaUUa7-136" value="" style="rounded=1;whiteSpace=wrap;html=1;fillColor=#eeeeee;strokeColor=none;opacity=60;dashed=1;" vertex="1" parent="1">
          <mxGeometry x="1040" y="290" width="390" height="360" as="geometry" />
        </mxCell>
        <mxCell id="JVqYv_aj_eOmtdZaUUa7-137" value="" style="group" vertex="1" connectable="0" parent="1">
          <mxGeometry x="1050" y="490" width="360" height="30" as="geometry" />
        </mxCell>
        <mxCell id="JVqYv_aj_eOmtdZaUUa7-138" value="" style="rounded=0;whiteSpace=wrap;html=1;fillColor=#f8cecc;strokeColor=#b85450;" vertex="1" parent="JVqYv_aj_eOmtdZaUUa7-137">
          <mxGeometry width="60" height="30" as="geometry" />
        </mxCell>
        <mxCell id="JVqYv_aj_eOmtdZaUUa7-139" value="" style="rounded=0;whiteSpace=wrap;html=1;fillColor=#d5e8d4;strokeColor=#82b366;" vertex="1" parent="JVqYv_aj_eOmtdZaUUa7-137">
          <mxGeometry x="60" width="60" height="30" as="geometry" />
        </mxCell>
        <mxCell id="JVqYv_aj_eOmtdZaUUa7-140" value="" style="rounded=0;whiteSpace=wrap;html=1;fillColor=#dae8fc;strokeColor=#6c8ebf;" vertex="1" parent="JVqYv_aj_eOmtdZaUUa7-137">
          <mxGeometry x="190" width="30" height="30" as="geometry" />
        </mxCell>
        <mxCell id="JVqYv_aj_eOmtdZaUUa7-141" value="0" style="rounded=0;whiteSpace=wrap;html=1;fillColor=#dae8fc;strokeColor=#6c8ebf;" vertex="1" parent="JVqYv_aj_eOmtdZaUUa7-137">
          <mxGeometry x="220" width="30" height="30" as="geometry" />
        </mxCell>
        <mxCell id="JVqYv_aj_eOmtdZaUUa7-142" value="" style="rounded=0;whiteSpace=wrap;html=1;fillColor=#dae8fc;strokeColor=#6c8ebf;" vertex="1" parent="JVqYv_aj_eOmtdZaUUa7-137">
          <mxGeometry x="250" width="30" height="30" as="geometry" />
        </mxCell>
        <mxCell id="JVqYv_aj_eOmtdZaUUa7-143" value="" style="rounded=0;whiteSpace=wrap;html=1;fillColor=#f5f5f5;fontColor=#333333;strokeColor=#666666;" vertex="1" parent="JVqYv_aj_eOmtdZaUUa7-137">
          <mxGeometry x="280" width="80" height="30" as="geometry" />
        </mxCell>
        <mxCell id="JVqYv_aj_eOmtdZaUUa7-144" value="&lt;font style=&quot;font-size: 12px;&quot;&gt;next_record&lt;/font&gt;" style="rounded=0;whiteSpace=wrap;html=1;fillColor=#fff2cc;strokeColor=#d6b656;" vertex="1" parent="JVqYv_aj_eOmtdZaUUa7-137">
          <mxGeometry x="120" width="70" height="30" as="geometry" />
        </mxCell>
        <mxCell id="JVqYv_aj_eOmtdZaUUa7-145" value="" style="group" vertex="1" connectable="0" parent="1">
          <mxGeometry x="1050" y="550" width="360" height="30" as="geometry" />
        </mxCell>
        <mxCell id="JVqYv_aj_eOmtdZaUUa7-146" value="" style="rounded=0;whiteSpace=wrap;html=1;fillColor=#f8cecc;strokeColor=#b85450;" vertex="1" parent="JVqYv_aj_eOmtdZaUUa7-145">
          <mxGeometry width="60" height="30" as="geometry" />
        </mxCell>
        <mxCell id="JVqYv_aj_eOmtdZaUUa7-147" value="" style="rounded=0;whiteSpace=wrap;html=1;fillColor=#d5e8d4;strokeColor=#82b366;" vertex="1" parent="JVqYv_aj_eOmtdZaUUa7-145">
          <mxGeometry x="60" width="60" height="30" as="geometry" />
        </mxCell>
        <mxCell id="JVqYv_aj_eOmtdZaUUa7-148" value="" style="rounded=0;whiteSpace=wrap;html=1;fillColor=#dae8fc;strokeColor=#6c8ebf;" vertex="1" parent="JVqYv_aj_eOmtdZaUUa7-145">
          <mxGeometry x="190" width="30" height="30" as="geometry" />
        </mxCell>
        <mxCell id="JVqYv_aj_eOmtdZaUUa7-149" value="0" style="rounded=0;whiteSpace=wrap;html=1;fillColor=#dae8fc;strokeColor=#6c8ebf;" vertex="1" parent="JVqYv_aj_eOmtdZaUUa7-145">
          <mxGeometry x="220" width="30" height="30" as="geometry" />
        </mxCell>
        <mxCell id="JVqYv_aj_eOmtdZaUUa7-150" value="" style="rounded=0;whiteSpace=wrap;html=1;fillColor=#dae8fc;strokeColor=#6c8ebf;" vertex="1" parent="JVqYv_aj_eOmtdZaUUa7-145">
          <mxGeometry x="250" width="30" height="30" as="geometry" />
        </mxCell>
        <mxCell id="JVqYv_aj_eOmtdZaUUa7-151" value="" style="rounded=0;whiteSpace=wrap;html=1;fillColor=#f5f5f5;fontColor=#333333;strokeColor=#666666;" vertex="1" parent="JVqYv_aj_eOmtdZaUUa7-145">
          <mxGeometry x="280" width="80" height="30" as="geometry" />
        </mxCell>
        <mxCell id="JVqYv_aj_eOmtdZaUUa7-152" value="&lt;font style=&quot;font-size: 12px;&quot;&gt;next_record&lt;/font&gt;" style="rounded=0;whiteSpace=wrap;html=1;fillColor=#fff2cc;strokeColor=#d6b656;" vertex="1" parent="JVqYv_aj_eOmtdZaUUa7-145">
          <mxGeometry x="120" width="70" height="30" as="geometry" />
        </mxCell>
        <mxCell id="JVqYv_aj_eOmtdZaUUa7-153" value="" style="group" vertex="1" connectable="0" parent="1">
          <mxGeometry x="1050" y="610" width="360" height="30" as="geometry" />
        </mxCell>
        <mxCell id="JVqYv_aj_eOmtdZaUUa7-154" value="" style="rounded=0;whiteSpace=wrap;html=1;fillColor=#f8cecc;strokeColor=#b85450;" vertex="1" parent="JVqYv_aj_eOmtdZaUUa7-153">
          <mxGeometry width="60" height="30" as="geometry" />
        </mxCell>
        <mxCell id="JVqYv_aj_eOmtdZaUUa7-155" value="" style="rounded=0;whiteSpace=wrap;html=1;fillColor=#d5e8d4;strokeColor=#82b366;" vertex="1" parent="JVqYv_aj_eOmtdZaUUa7-153">
          <mxGeometry x="60" width="60" height="30" as="geometry" />
        </mxCell>
        <mxCell id="JVqYv_aj_eOmtdZaUUa7-156" value="" style="rounded=0;whiteSpace=wrap;html=1;fillColor=#dae8fc;strokeColor=#6c8ebf;" vertex="1" parent="JVqYv_aj_eOmtdZaUUa7-153">
          <mxGeometry x="190" width="30" height="30" as="geometry" />
        </mxCell>
        <mxCell id="JVqYv_aj_eOmtdZaUUa7-157" value="4" style="rounded=0;whiteSpace=wrap;html=1;fillColor=#dae8fc;strokeColor=#6c8ebf;" vertex="1" parent="JVqYv_aj_eOmtdZaUUa7-153">
          <mxGeometry x="220" width="30" height="30" as="geometry" />
        </mxCell>
        <mxCell id="JVqYv_aj_eOmtdZaUUa7-158" value="" style="rounded=0;whiteSpace=wrap;html=1;fillColor=#dae8fc;strokeColor=#6c8ebf;" vertex="1" parent="JVqYv_aj_eOmtdZaUUa7-153">
          <mxGeometry x="250" width="30" height="30" as="geometry" />
        </mxCell>
        <mxCell id="JVqYv_aj_eOmtdZaUUa7-159" value="" style="rounded=0;whiteSpace=wrap;html=1;fillColor=#f5f5f5;fontColor=#333333;strokeColor=#666666;" vertex="1" parent="JVqYv_aj_eOmtdZaUUa7-153">
          <mxGeometry x="280" width="80" height="30" as="geometry" />
        </mxCell>
        <mxCell id="JVqYv_aj_eOmtdZaUUa7-160" value="&lt;font style=&quot;font-size: 12px;&quot;&gt;next_record&lt;/font&gt;" style="rounded=0;whiteSpace=wrap;html=1;fillColor=#fff2cc;strokeColor=#d6b656;" vertex="1" parent="JVqYv_aj_eOmtdZaUUa7-153">
          <mxGeometry x="120" width="70" height="30" as="geometry" />
        </mxCell>
        <mxCell id="JVqYv_aj_eOmtdZaUUa7-161" value="" style="group" vertex="1" connectable="0" parent="1">
          <mxGeometry x="1050" y="430" width="360" height="30" as="geometry" />
        </mxCell>
        <mxCell id="JVqYv_aj_eOmtdZaUUa7-162" value="" style="rounded=0;whiteSpace=wrap;html=1;fillColor=#f8cecc;strokeColor=#b85450;" vertex="1" parent="JVqYv_aj_eOmtdZaUUa7-161">
          <mxGeometry width="60" height="30" as="geometry" />
        </mxCell>
        <mxCell id="JVqYv_aj_eOmtdZaUUa7-163" value="" style="rounded=0;whiteSpace=wrap;html=1;fillColor=#dae8fc;strokeColor=#6c8ebf;" vertex="1" parent="JVqYv_aj_eOmtdZaUUa7-161">
          <mxGeometry x="190" width="30" height="30" as="geometry" />
        </mxCell>
        <mxCell id="JVqYv_aj_eOmtdZaUUa7-164" value="0" style="rounded=0;whiteSpace=wrap;html=1;fillColor=#dae8fc;strokeColor=#6c8ebf;" vertex="1" parent="JVqYv_aj_eOmtdZaUUa7-161">
          <mxGeometry x="220" width="30" height="30" as="geometry" />
        </mxCell>
        <mxCell id="JVqYv_aj_eOmtdZaUUa7-165" value="" style="rounded=0;whiteSpace=wrap;html=1;fillColor=#dae8fc;strokeColor=#6c8ebf;" vertex="1" parent="JVqYv_aj_eOmtdZaUUa7-161">
          <mxGeometry x="250" width="30" height="30" as="geometry" />
        </mxCell>
        <mxCell id="JVqYv_aj_eOmtdZaUUa7-166" value="" style="rounded=0;whiteSpace=wrap;html=1;fillColor=#f5f5f5;fontColor=#333333;strokeColor=#666666;" vertex="1" parent="JVqYv_aj_eOmtdZaUUa7-161">
          <mxGeometry x="280" width="80" height="30" as="geometry" />
        </mxCell>
        <mxCell id="JVqYv_aj_eOmtdZaUUa7-167" value="&lt;font style=&quot;font-size: 12px;&quot;&gt;next_record&lt;/font&gt;" style="rounded=0;whiteSpace=wrap;html=1;fillColor=#fff2cc;strokeColor=#d6b656;" vertex="1" parent="JVqYv_aj_eOmtdZaUUa7-161">
          <mxGeometry x="120" width="70" height="30" as="geometry" />
        </mxCell>
        <mxCell id="JVqYv_aj_eOmtdZaUUa7-168" value="" style="rounded=0;whiteSpace=wrap;html=1;fillColor=#d5e8d4;strokeColor=#82b366;" vertex="1" parent="JVqYv_aj_eOmtdZaUUa7-161">
          <mxGeometry x="60" width="60" height="30" as="geometry" />
        </mxCell>
        <mxCell id="JVqYv_aj_eOmtdZaUUa7-169" value="n_owned" style="rounded=0;whiteSpace=wrap;html=1;glass=1;fillColor=#dae8fc;strokeColor=#6c8ebf;gradientColor=#7ea6e0;" vertex="1" parent="1">
          <mxGeometry x="430" y="410" width="50" height="20" as="geometry" />
        </mxCell>
        <mxCell id="JVqYv_aj_eOmtdZaUUa7-174" style="edgeStyle=orthogonalEdgeStyle;rounded=0;orthogonalLoop=1;jettySize=auto;html=1;exitX=0.5;exitY=1;exitDx=0;exitDy=0;entryX=0.5;entryY=0;entryDx=0;entryDy=0;" edge="1" parent="1">
          <mxGeometry relative="1" as="geometry">
            <mxPoint x="1205" y="460" as="sourcePoint" />
            <mxPoint x="1080" y="490" as="targetPoint" />
            <Array as="points">
              <mxPoint x="1205" y="470" />
              <mxPoint x="1080" y="470" />
            </Array>
          </mxGeometry>
        </mxCell>
        <mxCell id="JVqYv_aj_eOmtdZaUUa7-175" style="edgeStyle=orthogonalEdgeStyle;rounded=0;orthogonalLoop=1;jettySize=auto;html=1;exitX=0.5;exitY=1;exitDx=0;exitDy=0;entryX=0.5;entryY=0;entryDx=0;entryDy=0;" edge="1" parent="1">
          <mxGeometry relative="1" as="geometry">
            <mxPoint x="1205" y="520" as="sourcePoint" />
            <mxPoint x="1080" y="550" as="targetPoint" />
            <Array as="points">
              <mxPoint x="1205" y="530" />
              <mxPoint x="1080" y="530" />
            </Array>
          </mxGeometry>
        </mxCell>
        <mxCell id="JVqYv_aj_eOmtdZaUUa7-176" style="edgeStyle=orthogonalEdgeStyle;rounded=0;orthogonalLoop=1;jettySize=auto;html=1;exitX=0.5;exitY=1;exitDx=0;exitDy=0;entryX=0.5;entryY=0;entryDx=0;entryDy=0;" edge="1" parent="1">
          <mxGeometry relative="1" as="geometry">
            <mxPoint x="1205" y="580" as="sourcePoint" />
            <mxPoint x="1080" y="610" as="targetPoint" />
            <Array as="points">
              <mxPoint x="1205" y="590" />
              <mxPoint x="1080" y="590" />
            </Array>
          </mxGeometry>
        </mxCell>
        <mxCell id="JVqYv_aj_eOmtdZaUUa7-177" value="n_owned" style="rounded=0;whiteSpace=wrap;html=1;glass=1;fillColor=#dae8fc;strokeColor=#6c8ebf;gradientColor=#7ea6e0;" vertex="1" parent="1">
          <mxGeometry x="1260" y="410" width="50" height="20" as="geometry" />
        </mxCell>
        <mxCell id="JVqYv_aj_eOmtdZaUUa7-178" style="edgeStyle=orthogonalEdgeStyle;rounded=0;orthogonalLoop=1;jettySize=auto;html=1;exitX=0.5;exitY=1;exitDx=0;exitDy=0;entryX=0.5;entryY=0;entryDx=0;entryDy=0;" edge="1" parent="1" source="JVqYv_aj_eOmtdZaUUa7-95" target="JVqYv_aj_eOmtdZaUUa7-133">
          <mxGeometry relative="1" as="geometry">
            <Array as="points">
              <mxPoint x="375" y="660" />
              <mxPoint x="610" y="660" />
              <mxPoint x="610" y="410" />
              <mxPoint x="795" y="410" />
            </Array>
          </mxGeometry>
        </mxCell>
        <mxCell id="JVqYv_aj_eOmtdZaUUa7-179" style="edgeStyle=orthogonalEdgeStyle;rounded=0;orthogonalLoop=1;jettySize=auto;html=1;exitX=0.5;exitY=1;exitDx=0;exitDy=0;entryX=0.5;entryY=0;entryDx=0;entryDy=0;" edge="1" parent="1" source="JVqYv_aj_eOmtdZaUUa7-126" target="JVqYv_aj_eOmtdZaUUa7-167">
          <mxGeometry relative="1" as="geometry">
            <Array as="points">
              <mxPoint x="795" y="660" />
              <mxPoint x="1030" y="660" />
              <mxPoint x="1030" y="410" />
              <mxPoint x="1205" y="410" />
            </Array>
          </mxGeometry>
        </mxCell>
        <mxCell id="JVqYv_aj_eOmtdZaUUa7-180" value="" style="rounded=1;whiteSpace=wrap;html=1;fillColor=#eeeeee;strokeColor=none;opacity=60;dashed=1;" vertex="1" parent="1">
          <mxGeometry x="380" y="300" width="340" height="50" as="geometry" />
        </mxCell>
        <mxCell id="JVqYv_aj_eOmtdZaUUa7-44" value="" style="group" vertex="1" connectable="0" parent="1">
          <mxGeometry x="400" y="310" width="301" height="40" as="geometry" />
        </mxCell>
        <mxCell id="JVqYv_aj_eOmtdZaUUa7-35" value="" style="rounded=0;whiteSpace=wrap;html=1;fillColor=#f8cecc;strokeColor=#b85450;" vertex="1" parent="JVqYv_aj_eOmtdZaUUa7-44">
          <mxGeometry width="80" height="30" as="geometry" />
        </mxCell>
        <mxCell id="JVqYv_aj_eOmtdZaUUa7-36" value="" style="rounded=0;whiteSpace=wrap;html=1;fillColor=#d5e8d4;strokeColor=#82b366;" vertex="1" parent="JVqYv_aj_eOmtdZaUUa7-44">
          <mxGeometry x="80" width="80" height="30" as="geometry" />
        </mxCell>
        <mxCell id="JVqYv_aj_eOmtdZaUUa7-37" value="&lt;font style=&quot;font-size: 12px;&quot;&gt;next_record&lt;/font&gt;" style="rounded=0;whiteSpace=wrap;html=1;fillColor=#fff2cc;strokeColor=#d6b656;" vertex="1" parent="JVqYv_aj_eOmtdZaUUa7-44">
          <mxGeometry x="160" width="70" height="30" as="geometry" />
        </mxCell>
        <mxCell id="JVqYv_aj_eOmtdZaUUa7-38" value="Infimum" style="rounded=0;whiteSpace=wrap;html=1;fillColor=#dae8fc;strokeColor=#6c8ebf;" vertex="1" parent="JVqYv_aj_eOmtdZaUUa7-44">
          <mxGeometry x="230" width="71" height="30" as="geometry" />
        </mxCell>
        <mxCell id="JVqYv_aj_eOmtdZaUUa7-45" value="" style="group" vertex="1" connectable="0" parent="1">
          <mxGeometry x="1060" y="310" width="301" height="30" as="geometry" />
        </mxCell>
        <mxCell id="JVqYv_aj_eOmtdZaUUa7-46" value="" style="rounded=0;whiteSpace=wrap;html=1;fillColor=#f8cecc;strokeColor=#b85450;" vertex="1" parent="JVqYv_aj_eOmtdZaUUa7-45">
          <mxGeometry width="80" height="30" as="geometry" />
        </mxCell>
        <mxCell id="JVqYv_aj_eOmtdZaUUa7-48" value="&lt;font style=&quot;font-size: 12px;&quot;&gt;next_record&lt;/font&gt;" style="rounded=0;whiteSpace=wrap;html=1;fillColor=#fff2cc;strokeColor=#d6b656;" vertex="1" parent="JVqYv_aj_eOmtdZaUUa7-45">
          <mxGeometry x="160" width="70" height="30" as="geometry" />
        </mxCell>
        <mxCell id="JVqYv_aj_eOmtdZaUUa7-49" value="Supremum" style="rounded=0;whiteSpace=wrap;html=1;fillColor=#dae8fc;strokeColor=#6c8ebf;" vertex="1" parent="JVqYv_aj_eOmtdZaUUa7-45">
          <mxGeometry x="230" width="71" height="30" as="geometry" />
        </mxCell>
        <mxCell id="JVqYv_aj_eOmtdZaUUa7-47" value="" style="rounded=0;whiteSpace=wrap;html=1;fillColor=#d5e8d4;strokeColor=#82b366;" vertex="1" parent="JVqYv_aj_eOmtdZaUUa7-45">
          <mxGeometry x="80" width="80" height="30" as="geometry" />
        </mxCell>
        <mxCell id="JVqYv_aj_eOmtdZaUUa7-75" style="edgeStyle=orthogonalEdgeStyle;rounded=0;orthogonalLoop=1;jettySize=auto;html=1;exitX=0.5;exitY=1;exitDx=0;exitDy=0;entryX=1;entryY=0.5;entryDx=0;entryDy=0;" edge="1" parent="1" source="JVqYv_aj_eOmtdZaUUa7-160" target="JVqYv_aj_eOmtdZaUUa7-49">
          <mxGeometry relative="1" as="geometry">
            <Array as="points">
              <mxPoint x="1205" y="660" />
              <mxPoint x="1440" y="660" />
              <mxPoint x="1440" y="325" />
            </Array>
          </mxGeometry>
        </mxCell>
        <mxCell id="JVqYv_aj_eOmtdZaUUa7-182" value="&lt;font style=&quot;font-size: 16px;&quot;&gt;&lt;font style=&quot;font-size: 16px;&quot;&gt;Slot &lt;/font&gt;2&lt;/font&gt;" style="rounded=0;whiteSpace=wrap;html=1;fillColor=#dae8fc;strokeColor=#6c8ebf;" vertex="1" parent="1">
          <mxGeometry x="900" y="850" width="50" height="50" as="geometry" />
        </mxCell>
        <mxCell id="JVqYv_aj_eOmtdZaUUa7-183" value="&lt;font style=&quot;font-size: 16px;&quot;&gt;&lt;font style=&quot;font-size: 16px;&quot;&gt;Slot &lt;/font&gt;1&lt;/font&gt;" style="rounded=0;whiteSpace=wrap;html=1;fillColor=#dae8fc;strokeColor=#6c8ebf;" vertex="1" parent="1">
          <mxGeometry x="680" y="850" width="50" height="50" as="geometry" />
        </mxCell>
        <mxCell id="JVqYv_aj_eOmtdZaUUa7-184" value="&lt;font style=&quot;font-size: 16px;&quot;&gt;&lt;font style=&quot;font-size: 16px;&quot;&gt;Slot &lt;/font&gt;3&lt;/font&gt;" style="rounded=0;whiteSpace=wrap;html=1;fillColor=#dae8fc;strokeColor=#6c8ebf;" vertex="1" parent="1">
          <mxGeometry x="1130" y="850" width="50" height="50" as="geometry" />
        </mxCell>
        <mxCell id="JVqYv_aj_eOmtdZaUUa7-186" style="edgeStyle=orthogonalEdgeStyle;rounded=0;orthogonalLoop=1;jettySize=auto;html=1;exitX=0;exitY=0.5;exitDx=0;exitDy=0;entryX=0.5;entryY=1;entryDx=0;entryDy=0;fillColor=#cce5ff;strokeColor=#0000FF;strokeWidth=3;" edge="1" parent="1" source="JVqYv_aj_eOmtdZaUUa7-183" target="JVqYv_aj_eOmtdZaUUa7-89">
          <mxGeometry relative="1" as="geometry">
            <mxPoint x="490" y="885" as="sourcePoint" />
            <mxPoint x="390" y="335" as="targetPoint" />
            <Array as="points">
              <mxPoint x="600" y="875" />
              <mxPoint x="600" y="800" />
              <mxPoint x="250" y="800" />
            </Array>
          </mxGeometry>
        </mxCell>
        <mxCell id="JVqYv_aj_eOmtdZaUUa7-187" style="edgeStyle=orthogonalEdgeStyle;rounded=0;orthogonalLoop=1;jettySize=auto;html=1;exitX=0;exitY=0.5;exitDx=0;exitDy=0;entryX=0.5;entryY=1;entryDx=0;entryDy=0;fillColor=#cce5ff;strokeColor=#0000FF;strokeWidth=3;" edge="1" parent="1" source="JVqYv_aj_eOmtdZaUUa7-182" target="JVqYv_aj_eOmtdZaUUa7-120">
          <mxGeometry relative="1" as="geometry">
            <mxPoint x="690" y="885" as="sourcePoint" />
            <mxPoint x="260" y="650" as="targetPoint" />
            <Array as="points">
              <mxPoint x="810" y="875" />
              <mxPoint x="810" y="830" />
              <mxPoint x="670" y="830" />
            </Array>
          </mxGeometry>
        </mxCell>
        <mxCell id="JVqYv_aj_eOmtdZaUUa7-188" style="edgeStyle=orthogonalEdgeStyle;rounded=0;orthogonalLoop=1;jettySize=auto;html=1;exitX=0;exitY=0.5;exitDx=0;exitDy=0;entryX=0.5;entryY=1;entryDx=0;entryDy=0;fillColor=#cce5ff;strokeColor=#0000FF;strokeWidth=3;" edge="1" parent="1" source="JVqYv_aj_eOmtdZaUUa7-184" target="JVqYv_aj_eOmtdZaUUa7-46">
          <mxGeometry relative="1" as="geometry">
            <mxPoint x="910" y="885" as="sourcePoint" />
            <mxPoint x="680" y="650" as="targetPoint" />
            <Array as="points">
              <mxPoint x="1110" y="875" />
              <mxPoint x="1110" y="820" />
              <mxPoint x="1460" y="820" />
              <mxPoint x="1460" y="360" />
              <mxPoint x="1100" y="360" />
            </Array>
          </mxGeometry>
        </mxCell>
        <mxCell id="JVqYv_aj_eOmtdZaUUa7-185" style="edgeStyle=orthogonalEdgeStyle;rounded=0;orthogonalLoop=1;jettySize=auto;html=1;exitX=0;exitY=0.5;exitDx=0;exitDy=0;entryX=0;entryY=0.5;entryDx=0;entryDy=0;fillColor=#cce5ff;strokeColor=#0000FF;strokeWidth=3;" edge="1" parent="1" source="JVqYv_aj_eOmtdZaUUa7-82" target="JVqYv_aj_eOmtdZaUUa7-35">
          <mxGeometry relative="1" as="geometry">
            <Array as="points">
              <mxPoint x="190" y="875" />
              <mxPoint x="190" y="325" />
            </Array>
          </mxGeometry>
        </mxCell>
      </root>
    </mxGraphModel>
  </diagram>
</mxfile>
